<?xml version="1.0" encoding="UTF-8"?> <svg xmlns="http://www.w3.org/2000/svg" xmlns:xlink="http://www.w3.org/1999/xlink" id="e9iswzsintjk1" viewBox="0 0 800 600" shape-rendering="geometricPrecision" text-rendering="geometricPrecision"><style><![CDATA[#e9iswzsintjk9_tr {animation: e9iswzsintjk9_tr__tr 3000ms linear infinite normal forwards}@keyframes e9iswzsintjk9_tr__tr { 0% {transform: translate(243.237602px,244.409058px) rotate(0deg)} 16.666667% {transform: translate(243.237602px,244.409058px) rotate(0deg)} 33.333333% {transform: translate(243.237602px,244.409058px) rotate(-5.136707deg)} 43.333333% {transform: translate(243.237602px,244.409058px) rotate(0deg)} 100% {transform: translate(243.237602px,244.409058px) rotate(0deg)} }#e9iswzsintjk27_tr {animation: e9iswzsintjk27_tr__tr 3000ms linear infinite normal forwards}@keyframes e9iswzsintjk27_tr__tr { 0% {transform: translate(465.057831px,345.039192px) rotate(0deg)} 16.666667% {transform: translate(465.057831px,345.039192px) rotate(6.025903deg)} 26.666667% {transform: translate(465.057831px,345.039192px) rotate(0deg)} 100% {transform: translate(465.057831px,345.039192px) rotate(0deg)} }#e9iswzsintjk46_ts {animation: e9iswzsintjk46_ts__ts 3000ms linear infinite normal forwards}@keyframes e9iswzsintjk46_ts__ts { 0% {transform: translate(666.900024px,127.099991px) scale(0,0)} 73.333333% {transform: translate(666.900024px,127.099991px) scale(0,0)} 90% {transform: translate(666.900024px,127.099991px) scale(1,1)} 100% {transform: translate(666.900024px,127.099991px) scale(0,0)} }#e9iswzsintjk47_ts {animation: e9iswzsintjk47_ts__ts 3000ms linear infinite normal forwards}@keyframes e9iswzsintjk47_ts__ts { 0% {transform: translate(617.799988px,189.199997px) scale(0,0)} 56.666667% {transform: translate(617.799988px,189.199997px) scale(0,0)} 73.333333% {transform: translate(617.799988px,189.199997px) scale(1,1)} 83.333333% {transform: translate(617.799988px,189.199997px) scale(0,0)} 100% {transform: translate(617.799988px,189.199997px) scale(0,0)} }#e9iswzsintjk48_ts {animation: e9iswzsintjk48_ts__ts 3000ms linear infinite normal forwards}@keyframes e9iswzsintjk48_ts__ts { 0% {transform: translate(600.900024px,106.900002px) scale(0,0)} 46.666667% {transform: translate(600.900024px,106.900002px) scale(0,0)} 63.333333% {transform: translate(600.900024px,106.900002px) scale(1,1)} 73.333333% {transform: translate(600.900024px,106.900002px) scale(0,0)} 100% {transform: translate(600.900024px,106.900002px) scale(0,0)} }]]></style><defs><rect id="e9iswzsintjk2" width="800" height="600" rx="0" ry="0"></rect><linearGradient id="e9iswzsintjk7-fill" x1="400.370100" y1="10.383500" x2="400.370100" y2="613.140100" spreadMethod="pad" gradientUnits="userSpaceOnUse"><stop id="e9iswzsintjk7-fill-0" offset="16.870000%" stop-color="rgb(74,210,145)"></stop><stop id="e9iswzsintjk7-fill-1" offset="73.460000%" stop-color="rgb(48,182,117)"></stop></linearGradient></defs><g id="e9iswzsintjk3"><g id="e9iswzsintjk4" clip-path="url(#e9iswzsintjk49)"><g id="e9iswzsintjk5"><path id="e9iswzsintjk6" d="M723.600000,362.500000C694.700000,525.100000,482.400000,623.400000,319.700000,594.500000C157.100000,565.600000,48.700000,410.400000,77.500000,247.800000C106.500000,85.200000,261.700000,-23.200000,424.300000,5.700000C586.900000,34.500000,752.500000,199.900000,723.600000,362.500000Z" fill="rgb(239,240,252)" stroke="none" stroke-width="1"></path><path id="e9iswzsintjk7" d="M707.800000,211.100000C749.100000,365.200000,603.500000,538,449.400000,579.300000C295.400000,620.600000,137,529.200000,95.700000,375.100000C54.500000,221.100000,145.900000,62.700000,299.900000,21.400000C453.900000,-19.900000,666.500000,57.100000,707.800000,211.100000Z" fill="url(#e9iswzsintjk7-fill)" stroke="none" stroke-width="1"></path><path id="e9iswzsintjk8" d="M615.500000,468C534.900000,556.100000,335.600000,522.300000,220.300000,431.800000C105,341.400000,76.800000,196.700000,157.400000,108.600000C238,20.500000,396.800000,22.500000,512.100000,113C627.400000,203.400000,696.100000,379.900000,615.500000,468Z" fill="rgb(42,156,101)" fill-opacity="0.35" stroke="none" stroke-width="1"></path><g id="e9iswzsintjk9_tr" transform="translate(243.237602,244.409058) rotate(0)"><g id="e9iswzsintjk9" transform="translate(-243.237602,-244.409058)"><g id="e9iswzsintjk10"><rect id="e9iswzsintjk11" width="231.300000" height="282.600000" rx="0" ry="0" transform="matrix(0.96590000000000 -0.25880000000000 0.25880000000000 0.96590000000000 94.96281999999999 137.85760999999999)" fill="rgb(255,62,62)" stroke="none" stroke-width="1"></rect><rect id="e9iswzsintjk12" width="202.100000" height="253.400000" rx="0" ry="0" transform="matrix(0.96590000000000 -0.25880000000000 0.25880000000000 0.96590000000000 112.84353999999999 148.18147000000002)" fill="none" stroke="rgb(255,255,255)" stroke-width="29.184500"></rect></g><path id="e9iswzsintjk13" d="M238.400000,165L207.200000,173.400000L193.400000,177.100000C182.300000,180.100000,174.700000,190.300000,175.100000,201.700000L176.800000,250.600000L191.700000,246.600000L214.900000,333.300000L311.600000,307.400000L288.400000,220.700000L303.300000,216.700000L280.300000,173.500000C274.900000,163.400000,263.300000,158.300000,252.200000,161.300000L238.400000,165Z" clip-rule="evenodd" fill="rgb(255,249,249)" fill-rule="evenodd" stroke="none" stroke-width="1"></path><path id="e9iswzsintjk14" d="M176.500000,244L189.900000,240.400000L191.700000,247.100000L177,251L176.500000,244Z" fill="rgb(51,51,51)" stroke="none" stroke-width="1"></path><path id="e9iswzsintjk15" d="M177.400000,200.700000C177,190.700000,183.600000,181.800000,193.300000,179.200000L203.600000,176.400000L203.100000,174.400000L193.400000,177C182.300000,180,174.700000,190.200000,175.100000,201.600000L176.600000,243.800000L178.900000,243.700000L177.400000,200.700000Z" clip-rule="evenodd" fill="rgb(255,255,255)" fill-rule="evenodd" stroke="none" stroke-width="1"></path><path id="e9iswzsintjk16" d="M277.900000,173.800000C273.200000,165,263,160.500000,253.400000,163.100000L243.100000,165.900000L242.600000,163.900000L252.300000,161.300000C263.400000,158.300000,275.100000,163.400000,280.400000,173.500000L300.200000,210.800000L298.200000,211.900000L277.900000,173.800000Z" clip-rule="evenodd" fill="rgb(255,255,255)" fill-rule="evenodd" stroke="none" stroke-width="1"></path><path id="e9iswzsintjk17" d="M300.200000,210.800000L286.800000,214.400000L288.600000,221.100000L303.300000,217.200000L300.200000,210.800000Z" fill="rgb(51,51,51)" stroke="none" stroke-width="1"></path><path id="e9iswzsintjk18" d="M241.100000,164.300000C242.900000,174.300000,237.400000,183.900000,228.100000,186.400000C218.800000,188.900000,209.200000,183.300000,205.800000,173.700000L207.200000,173.300000L238.400000,164.900000L241.100000,164.300000Z" clip-rule="evenodd" fill="rgb(190,190,190)" fill-rule="evenodd" stroke="none" stroke-width="1"></path><path id="e9iswzsintjk19" d="M227,182.400000C234.300000,180.400000,239,172.700000,237.500000,164.200000L244.300000,163C246.400000,174.500000,240,186.100000,228.800000,189.100000C217.600000,192.100000,206.200000,185.300000,202.300000,174.300000L208.800000,172C211.700000,179.900000,219.700000,184.300000,227,182.400000Z" clip-rule="evenodd" fill="rgb(51,51,51)" fill-rule="evenodd" stroke="none" stroke-width="1"></path><path id="e9iswzsintjk20" d="M184.800000,221.600000L191.600000,247L186.200000,248.400000L184.800000,221.600000Z" fill="rgb(51,51,51)" fill-opacity="0.16" stroke="none" stroke-width="1"></path><path id="e9iswzsintjk21" d="M281.900000,195.600000L288.700000,221L294.100000,219.600000L281.900000,195.600000Z" fill="rgb(51,51,51)" fill-opacity="0.16" stroke="none" stroke-width="1"></path><circle id="e9iswzsintjk22" r="6.900000" transform="matrix(1 0 0 1 261.60000000000002 200.40000000000001)" fill="rgb(228,228,228)" stroke="none" stroke-width="1"></circle><rect id="e9iswzsintjk23" width="6.200000" height="4.200000" rx="0" ry="0" transform="matrix(0.96590000000000 -0.25880000000000 0.25880000000000 0.96590000000000 202.45267000000001 212.58580999999998)" fill="rgb(228,228,228)" stroke="none" stroke-width="1"></rect><rect id="e9iswzsintjk24" width="100.400000" height="4.200000" rx="0" ry="0" transform="matrix(0.96590000000000 -0.25880000000000 0.25880000000000 0.96590000000000 189.07453000000004 237.46404000000001)" fill="rgb(255,189,62)" stroke="none" stroke-width="1"></rect><rect id="e9iswzsintjk25" width="100.400000" height="4.200000" rx="0" ry="0" transform="matrix(0.96590000000000 -0.25880000000000 0.25880000000000 0.96590000000000 190.16991999999999 241.45816000000002)" fill="rgb(255,62,62)" stroke="none" stroke-width="1"></rect><rect id="e9iswzsintjk26" width="100.400000" height="4.200000" rx="0" ry="0" transform="matrix(0.96590000000000 -0.25880000000000 0.25880000000000 0.96590000000000 191.26560999999998 245.45208000000000)" fill="rgb(51,51,51)" stroke="none" stroke-width="1"></rect></g></g><g id="e9iswzsintjk27_tr" transform="translate(465.057831,345.039192) rotate(0)"><g id="e9iswzsintjk27" transform="translate(-465.057831,-345.039192)"><g id="e9iswzsintjk28"><rect id="e9iswzsintjk29" width="404.100000" height="330.800000" rx="0" ry="0" transform="matrix(0.25880000000000 -0.96590000000000 0.96590000000000 0.25880000000000 253.00743999999997 497.39378000000005)" fill="rgb(157,199,255)" stroke="none" stroke-width="1"></rect><rect id="e9iswzsintjk30" width="362.500000" height="289.200000" rx="0" ry="0" transform="matrix(0.25880000000000 -0.96590000000000 0.96590000000000 0.25880000000000 278.48079999999999 482.68709999999999)" fill="none" stroke="rgb(255,255,255)" stroke-width="41.603000"></rect></g><path id="e9iswzsintjk31" d="M516.300000,243.300000L471.600000,231.300000L451.900000,226C436,221.800000,419.400000,229,411.700000,243.400000L378.800000,305.200000L400.100000,310.900000L366.900000,434.900000L505.200000,472L538.400000,348L559.700000,353.700000L562.200000,283.700000C562.800000,267.300000,551.900000,252.700000,536.100000,248.500000L516.300000,243.300000Z" clip-rule="evenodd" fill="rgb(75,89,216)" fill-rule="evenodd" stroke="none" stroke-width="1"></path><rect id="e9iswzsintjk32" width="210" height="32.700000" rx="0" ry="0" transform="matrix(0.25880000000000 -0.96590000000000 0.96590000000000 0.25880000000000 420.17349000000002 449.25577999999996)" fill="rgb(24,31,96)" stroke="none" stroke-width="1"></rect><path id="e9iswzsintjk33" d="M402.300000,301.900000L407.800000,281.300000C413.600000,259.600000,429.200000,241.800000,449.900000,233.100000L455.100000,230.900000L398.200000,443.300000L366.600000,434.800000L402.300000,301.900000Z" fill="rgb(24,31,96)" stroke="none" stroke-width="1"></path><path id="e9iswzsintjk34" d="M541,339.100000L547.900000,313.300000C553.800000,293.800000,549.200000,272.700000,535.900000,257.300000L530.700000,251.300000L473.800000,463.700000L505.400000,472.200000L541,339.100000Z" fill="rgb(24,31,96)" stroke="none" stroke-width="1"></path><path id="e9iswzsintjk35" d="M383.100000,296.800000L402.200000,301.900000L399.600000,311.500000L378.100000,305.700000L383.100000,296.800000Z" fill="rgb(255,255,255)" stroke="none" stroke-width="1"></path><path id="e9iswzsintjk36" d="M415.100000,243.900000C421.800000,231.300000,436.400000,224.900000,450.200000,228.600000L465,232.600000L465.800000,229.700000L452,226C436.100000,221.800000,419.500000,229,411.800000,243.400000L382.300000,298.500000L386.400000,298.200000L415.100000,243.900000Z" clip-rule="evenodd" fill="rgb(255,255,255)" fill-rule="evenodd" stroke="none" stroke-width="1"></path><path id="e9iswzsintjk37" d="M558.900000,282.400000C559.400000,268.100000,550,255.300000,536.200000,251.600000L521.400000,247.600000L522.200000,244.700000L536,248.400000C551.900000,252.600000,562.700000,267.300000,562.100000,283.600000L560,344L556.700000,343.900000L558.900000,282.400000Z" clip-rule="evenodd" fill="rgb(255,255,255)" fill-rule="evenodd" stroke="none" stroke-width="1"></path><path id="e9iswzsintjk38" d="M560.200000,344.200000L541.100000,339.100000L538.500000,348.700000L560,354.500000L560.200000,344.200000Z" fill="rgb(255,255,255)" stroke="none" stroke-width="1"></path><path id="e9iswzsintjk39" d="M520.200000,244.300000C515.300000,257.900000,501.500000,266,488.300000,262.400000C475,258.800000,467.100000,245,469.700000,230.800000L471.700000,231.300000L516.400000,243.300000L520.200000,244.300000Z" clip-rule="evenodd" fill="rgb(25,34,117)" fill-rule="evenodd" stroke="none" stroke-width="1"></path><path id="e9iswzsintjk40" d="M489.800000,256.700000C500.300000,259.500000,511.700000,253.200000,515.800000,241.700000L525.100000,245C519.500000,260.800000,503.300000,270.500000,487.200000,266.200000C471.100000,261.900000,462,245.300000,465,228.900000L474.700000,230.700000C472.600000,242.700000,479.300000,253.900000,489.800000,256.700000Z" clip-rule="evenodd" fill="rgb(255,255,255)" fill-rule="evenodd" stroke="none" stroke-width="1"></path><path id="e9iswzsintjk41" d="M409.500000,275.100000L399.800000,311.500000L392.100000,309.400000L409.500000,275.100000Z" fill="rgb(38,46,122)" fill-opacity="0.43" stroke="none" stroke-width="1"></path><path id="e9iswzsintjk42" d="M548.200000,312.300000L538.500000,348.700000L546.200000,350.800000L548.200000,312.300000Z" fill="rgb(38,46,122)" fill-opacity="0.43" stroke="none" stroke-width="1"></path><circle id="e9iswzsintjk43" r="9.900000" transform="matrix(1 0 0 1 519.70000000000005 303.69999999999999)" fill="rgb(255,255,255)" stroke="none" stroke-width="1"></circle><rect id="e9iswzsintjk44" width="5.900000" height="8.900000" rx="0" ry="0" transform="matrix(0.25880000000000 -0.96590000000000 0.96590000000000 0.25880000000000 436.20971000000003 282.26011999999997)" fill="rgb(255,255,255)" stroke="none" stroke-width="1"></rect><path id="e9iswzsintjk45" d="M495.900000,342.900000C497.400000,337.400000,494.100000,331.600000,488.500000,330.200000L455,321.200000C449.500000,319.700000,443.700000,323,442.300000,328.600000C440.800000,334.100000,444.100000,339.900000,449.700000,341.300000L483.200000,350.300000C488.700000,351.700000,494.400000,348.500000,495.900000,342.900000Z" clip-rule="evenodd" fill="rgb(255,255,255)" fill-rule="evenodd" stroke="none" stroke-width="1"></path></g></g><g id="e9iswzsintjk46_ts" transform="translate(666.900024,127.099991) scale(0,0)"><path id="e9iswzsintjk46" d="M666.900000,148.900000C663.200000,138.800000,655.200000,130.800000,645.100000,127.100000C655.200000,123.400000,663.200000,115.400000,666.900000,105.300000C670.600000,115.400000,678.600000,123.400000,688.700000,127.100000C678.600000,130.800000,670.600000,138.800000,666.900000,148.900000Z" transform="translate(-666.900024,-127.099991)" fill="rgb(255,182,96)" stroke="none" stroke-width="1"></path></g><g id="e9iswzsintjk47_ts" transform="translate(617.799988,189.199997) scale(0,0)"><path id="e9iswzsintjk47" d="M617.800000,223C612,207.300000,599.700000,195,584,189.200000C599.700000,183.400000,612,171.100000,617.800000,155.400000C623.600000,171.100000,635.900000,183.400000,651.600000,189.200000C635.900000,195,623.600000,207.300000,617.800000,223Z" transform="translate(-617.799988,-189.199997)" fill="rgb(255,182,96)" stroke="none" stroke-width="1"></path></g><g id="e9iswzsintjk48_ts" transform="translate(600.900024,106.900002) scale(0,0)"><path id="e9iswzsintjk48" d="M600.900000,123.800000C598,116,591.800000,109.800000,584,106.900000C591.800000,104,598,97.800000,600.900000,90C603.800000,97.800000,610,104,617.800000,106.900000C610,109.800000,603.800000,116,600.900000,123.800000Z" transform="translate(-600.900024,-106.900002)" fill="rgb(255,182,96)" stroke="none" stroke-width="1"></path></g></g><clipPath id="e9iswzsintjk49"><use id="e9iswzsintjk50" width="800" height="600" xlink:href="#e9iswzsintjk2" fill="rgb(0,0,0)" stroke="none" stroke-width="1"></use></clipPath></g></g></svg> 