<?xml version="1.0" encoding="UTF-8"?> <svg xmlns="http://www.w3.org/2000/svg" xmlns:xlink="http://www.w3.org/1999/xlink" id="e2pn7ld1hrs31" viewBox="0 0 800 600" shape-rendering="geometricPrecision" text-rendering="geometricPrecision"><style><![CDATA[#e2pn7ld1hrs313_ts {animation: e2pn7ld1hrs313_ts__ts 3000ms linear infinite normal forwards}@keyframes e2pn7ld1hrs313_ts__ts { 0% {transform: translate(539.599983px,135.899994px) scale(1,1)} 50% {transform: translate(539.599983px,135.899994px) scale(1,1);animation-timing-function: cubic-bezier(0.420000,0,0.580000,1)} 66.666667% {transform: translate(539.599983px,135.899994px) scale(1.100000,1.100000);animation-timing-function: cubic-bezier(0.420000,0,0.580000,1)} 76.666667% {transform: translate(539.599983px,135.899994px) scale(1,1)} 100% {transform: translate(539.599983px,135.899994px) scale(1,1)} }#e2pn7ld1hrs315_tr {animation: e2pn7ld1hrs315_tr__tr 3000ms linear infinite normal forwards}@keyframes e2pn7ld1hrs315_tr__tr { 0% {transform: translate(539.500000px,135.800007px) rotate(0deg)} 100% {transform: translate(539.500000px,135.800007px) rotate(360deg)} }#e2pn7ld1hrs316_to {animation: e2pn7ld1hrs316_to__to 3000ms linear infinite normal forwards}@keyframes e2pn7ld1hrs316_to__to { 0% {transform: translate(233px,424px);animation-timing-function: cubic-bezier(0.420000,0,0.580000,1)} 16.666667% {transform: translate(266.600000px,424px);animation-timing-function: cubic-bezier(0.420000,0,0.580000,1)} 26.666667% {transform: translate(233px,424px)} 100% {transform: translate(233px,424px)} }]]></style><defs><rect id="e2pn7ld1hrs32" width="800" height="600" rx="0" ry="0"></rect><linearGradient id="e2pn7ld1hrs37-fill" x1="400.370000" y1="10.383500" x2="400.370000" y2="613.140100" spreadMethod="pad" gradientUnits="userSpaceOnUse"><stop id="e2pn7ld1hrs37-fill-0" offset="16.870000%" stop-color="rgb(74,210,145)"></stop><stop id="e2pn7ld1hrs37-fill-1" offset="73.460000%" stop-color="rgb(48,182,117)"></stop></linearGradient></defs><g id="e2pn7ld1hrs33"><g id="e2pn7ld1hrs34" clip-path="url(#e2pn7ld1hrs319)"><g id="e2pn7ld1hrs35"><path id="e2pn7ld1hrs36" d="M723.600000,362.500000C694.700000,525.100000,482.400000,623.400000,319.700000,594.500000C157.100000,565.600000,48.700000,410.400000,77.500000,247.800000C106.500000,85.200000,261.700000,-23.200000,424.300000,5.700000C586.900000,34.500000,752.500000,199.900000,723.600000,362.500000Z" fill="rgb(239,240,252)" stroke="none" stroke-width="1"></path><path id="e2pn7ld1hrs37" d="M707.800000,211.100000C749.100000,365.200000,603.500000,538,449.400000,579.300000C295.400000,620.600000,137,529.200000,95.700000,375.100000C54.500000,221.100000,145.900000,62.700000,299.900000,21.400000C453.900000,-19.900000,666.500000,57.100000,707.800000,211.100000Z" fill="url(#e2pn7ld1hrs37-fill)" stroke="none" stroke-width="1"></path><path id="e2pn7ld1hrs38" d="M151.900000,457.700000C87.700000,357,171.900000,173.200000,289.100000,85.200000C406.300000,-2.800000,553.400000,7.500000,617.600000,108.100000C681.800000,208.700000,638.800000,361.600000,521.600000,449.600000C404.400000,537.600000,216.100000,558.300000,151.900000,457.700000Z" fill="rgb(42,156,101)" fill-opacity="0.35" stroke="none" stroke-width="1"></path><path id="e2pn7ld1hrs39" d="M446.200000,581.600000C332.800000,618.400000,180.400000,495.200000,128.300000,363.600000C76.200000,232,125.900000,95.600000,239.300000,58.800000C352.600000,22.100000,486.800000,99,538.800000,230.600000C590.900000,362.200000,559.600000,544.900000,446.200000,581.600000Z" fill="rgb(42,156,101)" fill-opacity="0.35" stroke="none" stroke-width="1"></path><path id="e2pn7ld1hrs310" d="M223,143.200000C223,136.300000,227,130.800000,231.800000,130.800000L545.400000,130.800000C550.300000,130.800000,554.200000,136.400000,554.200000,143.200000L554.200000,434.900000C554.200000,441.800000,550.200000,447.300000,545.400000,447.300000L231.800000,447.300000C226.900000,447.300000,223,441.700000,223,434.900000L223,143.200000Z" fill="rgb(255,255,255)" stroke="none" stroke-width="1"></path><path id="e2pn7ld1hrs311" d="M362,243L362,130.800000L295.200000,130.800000L295.200000,243L362,243Z" fill="rgb(255,106,59)" stroke="none" stroke-width="1"></path><path id="e2pn7ld1hrs312" d="M442.200000,143.200000C442.200000,136.300000,443.500000,130.800000,445.200000,130.800000L551.300000,130.800000C553,130.800000,554.300000,136.400000,554.300000,143.200000L554.300000,434.900000C554.300000,441.800000,553,447.300000,551.300000,447.300000L445.200000,447.300000C443.500000,447.300000,442.200000,441.700000,442.200000,434.900000L442.200000,143.200000Z" fill="rgb(222,222,222)" stroke="none" stroke-width="1"></path><g id="e2pn7ld1hrs313_ts" transform="translate(539.599983,135.899994) scale(1,1)"><g id="e2pn7ld1hrs313" transform="translate(-539.599983,-135.899994)"><circle id="e2pn7ld1hrs314" r="67.900000" transform="matrix(1 0 0 1 539.60000000000002 135.90000000000001)" fill="rgb(255,106,60)" stroke="none" stroke-width="1"></circle><g id="e2pn7ld1hrs315_tr" transform="translate(539.500000,135.800007) rotate(0)"><path id="e2pn7ld1hrs315" d="M528.700000,109.600000L537.200000,101.100000C537.800000,100.500000,538.600000,100.100000,539.500000,100.100000C540.400000,100.100000,541.200000,100.400000,541.800000,101.100000L550.300000,109.600000L562.400000,109.600000C563.300000,109.600000,564.100000,109.900000,564.700000,110.600000C565.300000,111.200000,565.700000,112,565.700000,112.900000L565.700000,125L574.200000,133.500000C574.800000,134.100000,575.200000,134.900000,575.200000,135.800000C575.200000,136.700000,574.900000,137.500000,574.200000,138.100000L565.700000,146.600000L565.700000,158.700000C565.700000,159.600000,565.400000,160.400000,564.700000,161C564.100000,161.600000,563.300000,162,562.400000,162L550.300000,162L541.800000,170.500000C541.200000,171.100000,540.400000,171.500000,539.500000,171.500000C538.600000,171.500000,537.800000,171.200000,537.200000,170.500000L528.700000,162L516.600000,162C515.700000,162,514.900000,161.700000,514.300000,161C513.700000,160.400000,513.300000,159.600000,513.300000,158.700000L513.300000,146.600000L504.800000,138.100000C504.200000,137.500000,503.800000,136.700000,503.800000,135.800000C503.800000,134.900000,504.100000,134.100000,504.800000,133.500000L513.300000,125L513.300000,112.900000C513.300000,112,513.600000,111.200000,514.300000,110.600000C514.900000,110,515.700000,109.600000,516.600000,109.600000L528.700000,109.600000ZM539.500000,145.600000C542.100000,145.600000,544.600000,144.600000,546.400000,142.700000C548.200000,140.900000,549.300000,138.400000,549.300000,135.800000C549.300000,133.200000,548.300000,130.700000,546.400000,128.900000C544.600000,127.100000,542.100000,126,539.500000,126C536.900000,126,534.400000,127,532.600000,128.900000C530.800000,130.700000,529.700000,133.200000,529.700000,135.800000C529.700000,138.400000,530.700000,140.900000,532.600000,142.700000C534.400000,144.500000,536.900000,145.600000,539.500000,145.600000Z" transform="translate(-539.500000,-135.800007)" fill="rgb(255,255,255)" stroke="none" stroke-width="1"></path></g></g></g><g id="e2pn7ld1hrs316_to" transform="translate(233,424)"><g id="e2pn7ld1hrs316" transform="translate(-233,-424)"><path id="e2pn7ld1hrs317" d="M208,362L258,362C278.400000,362,295,378.600000,295,399L295,449C295,469.400000,278.400000,486,258,486L208,486C187.600000,486,171,469.400000,171,449L171,399C171,378.600000,187.600000,362,208,362Z" fill="rgb(99,87,235)" stroke="none" stroke-width="1"></path><path id="e2pn7ld1hrs318" d="M215.800000,425.900000L227.300000,425.900000L227.300000,422.100000L215.800000,422.100000L215.800000,404.600000C215.800000,404.400000,215.800000,404.300000,215.900000,404.100000C216,404,216.100000,403.800000,216.200000,403.800000C216.300000,403.700000,216.500000,403.700000,216.700000,403.700000C216.900000,403.700000,217,403.700000,217.200000,403.800000L252.600000,423.300000C252.700000,423.400000,252.900000,423.500000,253,423.700000C253.100000,423.800000,253.100000,424,253.100000,424.200000C253.100000,424.400000,253.100000,424.500000,253,424.700000C252.900000,424.800000,252.800000,425,252.600000,425.100000L217.200000,444.600000C217.100000,444.700000,216.900000,444.700000,216.700000,444.700000C216.500000,444.700000,216.400000,444.700000,216.200000,444.600000C216.100000,444.500000,215.900000,444.400000,215.900000,444.300000C215.800000,444.200000,215.800000,444,215.800000,443.800000L215.800000,425.900000Z" fill="rgb(255,255,255)" stroke="none" stroke-width="1"></path></g></g></g><clipPath id="e2pn7ld1hrs319"><use id="e2pn7ld1hrs320" width="800" height="600" xlink:href="#e2pn7ld1hrs32" fill="rgb(0,0,0)" stroke="none" stroke-width="1"></use></clipPath></g></g></svg> 