<?xml version="1.0" encoding="UTF-8"?> <svg xmlns="http://www.w3.org/2000/svg" xmlns:xlink="http://www.w3.org/1999/xlink" id="ehhe628qcg81" viewBox="0 0 800 600" shape-rendering="geometricPrecision" text-rendering="geometricPrecision"><style><![CDATA[#ehhe628qcg814_tr {animation: ehhe628qcg814_tr__tr 3000ms linear infinite normal forwards}@keyframes ehhe628qcg814_tr__tr { 0% {transform: translate(399.500015px,284.399994px) rotate(0deg)} 50% {transform: translate(399.500015px,284.399994px) rotate(360deg)} 100% {transform: translate(399.500015px,284.399994px) rotate(360deg)} }#ehhe628qcg820_ts {animation: ehhe628qcg820_ts__ts 3000ms linear infinite normal forwards}@keyframes ehhe628qcg820_ts__ts { 0% {transform: translate(558.999969px,123.599995px) scale(1,1)} 66.666667% {transform: translate(558.999969px,123.599995px) scale(1,1)} 73.333333% {transform: translate(558.999969px,123.599995px) scale(1.200000,1.200000)} 80% {transform: translate(558.999969px,123.599995px) scale(1,1)} 100% {transform: translate(558.999969px,123.599995px) scale(1,1)} }]]></style><defs><rect id="ehhe628qcg82" width="800" height="600" rx="0" ry="0"></rect><linearGradient id="ehhe628qcg87-fill" x1="400.370100" y1="10.383500" x2="400.370100" y2="613.140100" spreadMethod="pad" gradientUnits="userSpaceOnUse"><stop id="ehhe628qcg87-fill-0" offset="16.870000%" stop-color="rgb(74,210,145)"></stop><stop id="ehhe628qcg87-fill-1" offset="73.460000%" stop-color="rgb(48,182,117)"></stop></linearGradient></defs><g id="ehhe628qcg83"><g id="ehhe628qcg84" clip-path="url(#ehhe628qcg823)"><g id="ehhe628qcg85"><path id="ehhe628qcg86" d="M723.600000,362.500000C694.700000,525.100000,482.400000,623.400000,319.700000,594.500000C157.100000,565.600000,48.700000,410.400000,77.500000,247.800000C106.500000,85.200000,261.700000,-23.200000,424.300000,5.700000C586.900000,34.500000,752.500000,199.900000,723.600000,362.500000Z" fill="rgb(239,240,252)" stroke="none" stroke-width="1"></path><path id="ehhe628qcg87" d="M707.800000,211.100000C749.100000,365.200000,603.500000,538,449.400000,579.300000C295.400000,620.600000,137,529.200000,95.700000,375.100000C54.500000,221.100000,145.900000,62.700000,299.900000,21.400000C453.900000,-19.900000,666.500000,57.100000,707.800000,211.100000Z" fill="url(#ehhe628qcg87-fill)" stroke="none" stroke-width="1"></path><path id="ehhe628qcg88" d="M151.900000,457.700000C87.700000,357,171.900000,173.200000,289.100000,85.200000C406.300000,-2.800000,553.400000,7.500000,617.600000,108.100000C681.800000,208.700000,638.800000,361.600000,521.600000,449.600000C404.400000,537.600000,216.100000,558.300000,151.900000,457.700000Z" fill="rgb(42,156,101)" fill-opacity="0.35" stroke="none" stroke-width="1"></path><path id="ehhe628qcg89" d="M446.200000,581.600000C332.800000,618.400000,180.400000,495.200000,128.300000,363.600000C76.200000,232,125.900000,95.600000,239.300000,58.800000C352.600000,22.100000,486.800000,99,538.800000,230.600000C590.900000,362.200000,559.600000,544.900000,446.200000,581.600000Z" fill="rgb(42,156,101)" fill-opacity="0.35" stroke="none" stroke-width="1"></path><path id="ehhe628qcg810" d="M254.400000,116L544.700000,116C555.900000,116,565.100000,125.100000,565.100000,136.400000L565.100000,431.600000C565.100000,442.800000,556,452,544.700000,452L254.400000,452C243.200000,452,234,442.900000,234,431.600000L234,136.400000C234,125.100000,243.100000,116,254.400000,116Z" fill="rgb(255,255,255)" stroke="none" stroke-width="1"></path><path id="ehhe628qcg811" d="M295.200000,162.600000L503.700000,162.600000C512.300000,162.600000,519.300000,169.600000,519.300000,178.200000L519.300000,389.600000C519.300000,398.200000,512.300000,405.200000,503.700000,405.200000L295.200000,405.200000C286.600000,405.200000,279.600000,398.200000,279.600000,389.600000L279.600000,178.200000C279.600000,169.600000,286.600000,162.600000,295.200000,162.600000Z" fill="rgb(255,255,255)" stroke="rgb(0,0,0)" stroke-width="9.497100"></path><path id="ehhe628qcg812" d="M285.600000,450.900000L356.700000,450.900000L356.700000,473.100000C356.700000,479.100000,351.800000,484,345.800000,484L296.400000,484C290.400000,484,285.500000,479.100000,285.500000,473.100000L285.500000,450.900000Z" fill="rgb(255,106,59)" stroke="none" stroke-width="1"></path><path id="ehhe628qcg813" d="M441.400000,450.900000L512.500000,450.900000L512.500000,473.100000C512.500000,479.100000,507.600000,484,501.600000,484L452.200000,484C446.200000,484,441.300000,479.100000,441.300000,473.100000L441.300000,450.900000Z" fill="rgb(255,106,59)" stroke="none" stroke-width="1"></path><g id="ehhe628qcg814_tr" transform="translate(399.500015,284.399994) rotate(0)"><g id="ehhe628qcg814" transform="translate(-399.500015,-284.399994)"><circle id="ehhe628qcg815" r="60.400000" transform="matrix(1 0 0 1 399.50000000000000 284.39999999999998)" fill="rgb(255,106,59)" stroke="none" stroke-width="1"></circle><path id="ehhe628qcg816" d="M396.100000,224.100000L396.100000,236.800000L402.900000,236.800000L402.900000,224.100000L396.100000,224.100000ZM396.100000,332.100000L396.100000,344.800000L402.900000,344.800000L402.900000,332.100000L396.100000,332.100000ZM447.200000,281L459.900000,281L459.900000,287.800000L447.200000,287.800000L447.200000,281ZM351.800000,281L339.100000,281L339.100000,287.800000L351.800000,287.800000L351.800000,281ZM435.600000,315.700000L444.500000,324.700000L439.700000,329.500000L430.800000,320.600000L435.600000,315.700000ZM368.200000,248.300000L359.300000,239.300000L354.500000,244.100000L363.400000,253L368.200000,248.300000ZM368.200000,320.600000L359.300000,329.600000L354.500000,324.800000L363.500000,315.900000L368.200000,320.600000ZM435.600000,253.100000L444.500000,244.200000L439.700000,239.400000L430.800000,248.300000L435.600000,253.100000Z" clip-rule="evenodd" fill="rgb(255,249,249)" fill-rule="evenodd" stroke="none" stroke-width="1"></path></g></g><circle id="ehhe628qcg817" r="22.400000" transform="matrix(1 0 0 1 399.50000000000000 284.39999999999998)" fill="rgb(255,255,255)" stroke="none" stroke-width="1"></circle><path id="ehhe628qcg818" d="M506.600000,238.700000L528,238.700000C533.900000,238.700000,538.700000,243.500000,538.700000,249.400000L538.700000,249.400000C538.700000,255.300000,533.900000,260.100000,528,260.100000L506.600000,260.100000C500.700000,260.100000,495.900000,255.300000,495.900000,249.400000L495.900000,249.400000C495.900000,243.500000,500.700000,238.700000,506.600000,238.700000Z" fill="rgb(255,106,59)" stroke="none" stroke-width="1"></path><path id="ehhe628qcg819" d="M506.600000,308.800000L528,308.800000C533.900000,308.800000,538.700000,313.600000,538.700000,319.500000L538.700000,319.500000C538.700000,325.400000,533.900000,330.200000,528,330.200000L506.600000,330.200000C500.700000,330.200000,495.900000,325.400000,495.900000,319.500000L495.900000,319.500000C495.900000,313.600000,500.700000,308.800000,506.600000,308.800000Z" fill="rgb(255,106,59)" stroke="none" stroke-width="1"></path><g id="ehhe628qcg820_ts" transform="translate(558.999969,123.599995) scale(1,1)"><g id="ehhe628qcg820" transform="translate(-558.999969,-123.599995)"><circle id="ehhe628qcg821" r="62.212935" transform="matrix(1 0 0 1 559 123.59999999999999)" fill="rgb(99,87,235)" stroke="none" stroke-width="1"></circle><path id="ehhe628qcg822" d="M545.300000,122.300000L558.100000,135.100000L581.100000,112.100000" fill="none" stroke="rgb(255,255,255)" stroke-width="9" stroke-linecap="round" stroke-linejoin="round" stroke-dashoffset="5"></path></g></g></g><clipPath id="ehhe628qcg823"><use id="ehhe628qcg824" width="800" height="600" xlink:href="#ehhe628qcg82" fill="rgb(0,0,0)" stroke="none" stroke-width="1"></use></clipPath></g></g></svg> 