<?xml version="1.0" encoding="UTF-8"?> <svg xmlns="http://www.w3.org/2000/svg" xmlns:xlink="http://www.w3.org/1999/xlink" id="efayiy03v44d1" viewBox="0 0 800 600" shape-rendering="geometricPrecision" text-rendering="geometricPrecision"><style><![CDATA[#efayiy03v44d10_tr {animation: efayiy03v44d10_tr__tr 3000ms linear infinite normal forwards}@keyframes efayiy03v44d10_tr__tr { 0% {transform: translate(310.750000px,275.099995px) rotate(-10.266175deg)} 23.333333% {transform: translate(310.750000px,275.099995px) rotate(0deg)} 100% {transform: translate(310.750000px,275.099995px) rotate(0deg)} }#efayiy03v44d10_ts {animation: efayiy03v44d10_ts__ts 3000ms linear infinite normal forwards}@keyframes efayiy03v44d10_ts__ts { 0% {transform: scale(1,1);animation-timing-function: cubic-bezier(0.420000,0,0.580000,1)} 100% {transform: scale(1,1)} }#efayiy03v44d29_tr {animation: efayiy03v44d29_tr__tr 3000ms linear infinite normal forwards}@keyframes efayiy03v44d29_tr__tr { 0% {transform: translate(442.899994px,353.772141px) rotate(0deg)} 43.333333% {transform: translate(442.899994px,353.772141px) rotate(0deg)} 66.666667% {transform: translate(442.899994px,353.772141px) rotate(-5.964442deg)} 100% {transform: translate(442.899994px,353.772141px) rotate(-5.964442deg)} }#efayiy03v44d29_ts {animation: efayiy03v44d29_ts__ts 3000ms linear infinite normal forwards}@keyframes efayiy03v44d29_ts__ts { 0% {transform: scale(1,1)} 100% {transform: scale(1,1)} }#efayiy03v44d49_ts {animation: efayiy03v44d49_ts__ts 3000ms linear infinite normal forwards}@keyframes efayiy03v44d49_ts__ts { 0% {transform: translate(666.900024px,127.099991px) scale(0,0)} 36.666667% {transform: translate(666.900024px,127.099991px) scale(0,0)} 46.666667% {transform: translate(666.900024px,127.099991px) scale(1,1)} 56.666667% {transform: translate(666.900024px,127.099991px) scale(1,1)} 66.666667% {transform: translate(666.900024px,127.099991px) scale(0,0)} 100% {transform: translate(666.900024px,127.099991px) scale(0,0)} }#efayiy03v44d50_ts {animation: efayiy03v44d50_ts__ts 3000ms linear infinite normal forwards}@keyframes efayiy03v44d50_ts__ts { 0% {transform: translate(617.799988px,189.199997px) scale(0,0)} 16.666667% {transform: translate(617.799988px,189.199997px) scale(0,0)} 26.666667% {transform: translate(617.799988px,189.199997px) scale(1,1)} 36.666667% {transform: translate(617.799988px,189.199997px) scale(1,1)} 46.666667% {transform: translate(617.799988px,189.199997px) scale(0,0)} 100% {transform: translate(617.799988px,189.199997px) scale(0,0)} }#efayiy03v44d51_ts {animation: efayiy03v44d51_ts__ts 3000ms linear infinite normal forwards}@keyframes efayiy03v44d51_ts__ts { 0% {transform: translate(600.900024px,106.900002px) scale(0,0)} 16.666667% {transform: translate(600.900024px,106.900002px) scale(0,0)} 26.666667% {transform: translate(600.900024px,106.900002px) scale(1,1)} 36.666667% {transform: translate(600.900024px,106.900002px) scale(1,1)} 46.666667% {transform: translate(600.900024px,106.900002px) scale(0,0)} 100% {transform: translate(600.900024px,106.900002px) scale(0,0)} }]]></style><defs><rect id="efayiy03v44d2" width="800" height="600" rx="0" ry="0"></rect><linearGradient id="efayiy03v44d7-fill" x1="400.370100" y1="10.383500" x2="400.370100" y2="613.140100" spreadMethod="pad" gradientUnits="userSpaceOnUse"><stop id="efayiy03v44d7-fill-0" offset="16.870000%" stop-color="rgb(74,210,145)"></stop><stop id="efayiy03v44d7-fill-1" offset="73.460000%" stop-color="rgb(48,182,117)"></stop></linearGradient><linearGradient id="efayiy03v44d26-fill" x1="93.979400" y1="112.345200" x2="438.393500" y2="467.857600" spreadMethod="pad" gradientUnits="userSpaceOnUse"><stop id="efayiy03v44d26-fill-0" offset="0%" stop-color="rgba(255,255,255,0.06)"></stop><stop id="efayiy03v44d26-fill-1" offset="100%" stop-color="rgba(255,255,255,0.31)"></stop></linearGradient><linearGradient id="efayiy03v44d27-fill" x1="367.424000" y1="-163.965100" x2="260.175000" y2="394.742900" spreadMethod="pad" gradientUnits="userSpaceOnUse"><stop id="efayiy03v44d27-fill-0" offset="0%" stop-color="rgb(255,255,255)"></stop><stop id="efayiy03v44d27-fill-1" offset="100%" stop-color="rgba(255,255,255,0)"></stop></linearGradient><linearGradient id="efayiy03v44d28-fill" x1="376.724500" y1="-99.315100" x2="269.475500" y2="459.393500" spreadMethod="pad" gradientUnits="userSpaceOnUse"><stop id="efayiy03v44d28-fill-0" offset="0%" stop-color="rgb(255,255,255)"></stop><stop id="efayiy03v44d28-fill-1" offset="100%" stop-color="rgba(255,255,255,0)"></stop></linearGradient><linearGradient id="efayiy03v44d47-fill" x1="337.592200" y1="124.823100" x2="518.914200" y2="597.509000" spreadMethod="pad" gradientUnits="userSpaceOnUse"><stop id="efayiy03v44d47-fill-0" offset="0%" stop-color="rgba(255,255,255,0.06)"></stop><stop id="efayiy03v44d47-fill-1" offset="100%" stop-color="rgba(255,255,255,0.31)"></stop></linearGradient></defs><g id="efayiy03v44d3"><g id="efayiy03v44d4" clip-path="url(#efayiy03v44d52)"><g id="efayiy03v44d5"><path id="efayiy03v44d6" d="M723.600000,362.500000C694.700000,525.100000,482.400000,623.400000,319.700000,594.500000C157.100000,565.600000,48.700000,410.400000,77.500000,247.800000C106.500000,85.200000,261.700000,-23.200000,424.300000,5.700000C586.900000,34.500000,752.500000,199.900000,723.600000,362.500000Z" fill="rgb(239,240,252)" stroke="none" stroke-width="1"></path><path id="efayiy03v44d7" d="M707.800000,211.100000C749.100000,365.200000,603.500000,538,449.400000,579.300000C295.400000,620.600000,137,529.200000,95.700000,375.100000C54.500000,221.100000,145.900000,62.700000,299.900000,21.400000C453.900000,-19.900000,666.500000,57.100000,707.800000,211.100000Z" fill="url(#efayiy03v44d7-fill)" stroke="none" stroke-width="1"></path><path id="efayiy03v44d8" d="M151.900000,457.700000C87.700000,357,171.900000,173.200000,289.100000,85.200000C406.300000,-2.800000,553.400000,7.500000,617.600000,108.100000C681.800000,208.700000,638.800000,361.600000,521.600000,449.600000C404.400000,537.600000,216.100000,558.300000,151.900000,457.700000Z" fill="rgb(42,156,101)" fill-opacity="0.35" stroke="none" stroke-width="1"></path><path id="efayiy03v44d9" d="M446.200000,581.600000C332.800000,618.400000,180.400000,495.200000,128.300000,363.600000C76.200000,232,125.900000,95.600000,239.300000,58.800000C352.600000,22.100000,486.800000,99,538.800000,230.600000C590.900000,362.200000,559.600000,544.900000,446.200000,581.600000Z" fill="rgb(42,156,101)" fill-opacity="0.35" stroke="none" stroke-width="1"></path><g id="efayiy03v44d10_tr" transform="translate(310.750000,275.099995) rotate(-10.266175)"><g id="efayiy03v44d10_ts" transform="scale(1,1)"><g id="efayiy03v44d10" transform="translate(-310.750000,-275.099995)"><path id="efayiy03v44d11" d="M364.700000,110.100000L314,98.800000L365.100000,252.900000L422.300000,237.600000L370.100000,114.400000C369.300000,112.200000,367.300000,110.600000,364.700000,110.100000Z" fill="rgb(230,96,21)" stroke="none" stroke-width="1"></path><path id="efayiy03v44d12" d="M360.500000,242.400000L365.100000,252.900000L422.300000,237.600000L417.100000,224.500000L360.500000,242.400000Z" clip-rule="evenodd" fill="rgb(255,255,255)" fill-rule="evenodd" stroke="none" stroke-width="1"></path><path id="efayiy03v44d13" d="M293.100000,94.200000L226.600000,112L166.800000,161.200000L181.700000,216.700000L246.400000,479.800000C246.400000,479.800000,309,467.900000,348.300000,457.400000C387.700000,446.800000,447.800000,425.900000,447.800000,425.900000C438.800000,393.700000,418.600000,323.800000,409.900000,301.900000C401.200000,280,378.300000,165.300000,367.900000,110.700000L293.100000,94.200000Z" fill="rgb(247,97,13)" stroke="none" stroke-width="1"></path><rect id="efayiy03v44d14" width="22.400000" height="8.500000" rx="0" ry="0" transform="matrix(0.96590000000000 -0.25880000000000 0.25880000000000 0.96590000000000 206.66588000000002 210.45044000000001)" fill="rgb(255,255,255)" fill-opacity="0.26" stroke="none" stroke-width="1"></rect><path id="efayiy03v44d15" d="M273.500000,146.300000L226.800000,112.500000L292.700000,94.800000L273.500000,146.300000Z" fill="rgb(228,228,228)" stroke="none" stroke-width="1"></path><path id="efayiy03v44d16" d="M273.300000,145.800000L226.600000,112L292.500000,94.300000L273.300000,145.800000Z" fill="rgb(186,80,21)" stroke="none" stroke-width="1"></path><path id="efayiy03v44d17" d="M299.400000,95.600000L282.600000,140.600000C279.800000,148.100000,269.200000,151.200000,262.700000,146.500000L221.200000,116.400000L226.600000,112L237.600000,109L269.400000,133.100000L281.900000,97.100000L293,94.100000L299.400000,95.600000Z" clip-rule="evenodd" fill="rgb(255,255,255)" fill-rule="evenodd" stroke="none" stroke-width="1"></path><path id="efayiy03v44d18" d="M156.900000,169.500000L173.600000,155.900000L191.400000,239.400000L200.900000,294.400000L156.100000,306.400000L144.700000,194.200000C144.700000,185.400000,149.100000,176.100000,156.900000,169.500000Z" fill="rgb(246,97,13)" stroke="none" stroke-width="1"></path><path id="efayiy03v44d19" d="M300.400000,95.600000L384.200000,190.200000L368.100000,110.600000L300.400000,95.600000Z" fill="rgb(247,97,13)" stroke="none" stroke-width="1"></path><path id="efayiy03v44d20" d="M150.200000,249L147.700000,224.300000C154.100000,224.100000,158.100000,221.100000,161.300000,233.100000C164.500000,245.200000,158.100000,246.900000,150.200000,249C150.200000,249,150.200000,249,150.200000,249Z" clip-rule="evenodd" fill="rgb(255,255,255)" fill-rule="evenodd" stroke="none" stroke-width="1"></path><path id="efayiy03v44d21" d="M199.100000,283.300000L202,294.200000L156,306.500000L155.100000,295L199.100000,283.300000Z" clip-rule="evenodd" fill="rgb(255,255,255)" fill-rule="evenodd" stroke="none" stroke-width="1"></path><ellipse id="efayiy03v44d22" rx="18.200000" ry="15.300000" transform="matrix(0.96590000000000 -0.25880000000000 0.25880000000000 0.96590000000000 339.28525000000002 179.09584999999998)" fill="rgb(255,255,255)" fill-opacity="0.24" stroke="none" stroke-width="1"></ellipse><path id="efayiy03v44d23" d="M258.200000,89.400000L236.900000,109.300000L249.300000,118.700000L277.400000,111.200000L282.900000,97.100000L258.200000,89.400000Z" fill="rgb(255,255,255)" stroke="none" stroke-width="1"></path><path id="efayiy03v44d24" d="M260.400000,99.500000L251.400000,65.800000L241.700000,68.400000C232.100000,71,222.300000,65.300000,219.800000,55.700000L219.800000,55.700000C217.200000,46.100000,222.900000,36.300000,232.500000,33.800000L242.200000,31.200000" fill="none" stroke="rgb(255,255,255)" stroke-width="11.016300" stroke-linecap="round" stroke-linejoin="round"></path><g id="efayiy03v44d25" opacity="0.6"><path id="efayiy03v44d26" d="M219.700000,117.100000L269.400000,126.100000L300.900000,95.300000L368.800000,112.200000L421.600000,235.100000L478.600000,447.800000L213,519L156,306.300000L142.900000,179.900000L219.700000,117.100000Z" fill="url(#efayiy03v44d26-fill)" stroke="rgb(255,255,255)" stroke-width="2"></path><path id="efayiy03v44d27" d="M191.600000,439.100000L178.600000,390.700000L370.300000,115.700000L388.100000,157.100000L191.600000,439.100000Z" clip-rule="evenodd" fill="url(#efayiy03v44d27-fill)" fill-rule="evenodd" stroke="none" stroke-width="1"></path><path id="efayiy03v44d28" d="M201.200000,475.100000L196.300000,457L391.100000,165.200000L397.100000,177.400000L201.200000,475.100000Z" clip-rule="evenodd" fill="url(#efayiy03v44d28-fill)" fill-rule="evenodd" stroke="none" stroke-width="1"></path></g></g></g></g><g id="efayiy03v44d29_tr" transform="translate(442.899994,353.772141) rotate(0)"><g id="efayiy03v44d29_ts" transform="scale(1,1)"><g id="efayiy03v44d29" transform="translate(-442.899994,-353.772141)"><path id="efayiy03v44d30" d="M512.200000,194.400000L442.100000,185.100000L411.200000,181C386.300000,177.700000,362.500000,191.900000,353.700000,215.300000L316.100000,315.500000L349.500000,319.900000L323.600000,514.400000L540.500000,543.300000L566.400000,348.800000L599.800000,353.200000L589.700000,246.700000C587.300000,221.800000,568.100000,201.800000,543.200000,198.500000L512.200000,194.400000Z" clip-rule="evenodd" fill="rgb(255,249,249)" fill-rule="evenodd" stroke="none" stroke-width="1"></path><path id="efayiy03v44d31" d="M321,301.700000L351,305.700000L349,320.700000L316,316.300000L321,301.700000Z" fill="rgb(51,51,51)" stroke="none" stroke-width="1"></path><path id="efayiy03v44d32" d="M359,215.200000C366.700000,194.700000,387.500000,182.300000,409.100000,185.200000L432.300000,188.300000L432.900000,183.800000L411.200000,180.900000C386.300000,177.600000,362.500000,191.800000,353.700000,215.200000L321.200000,301.600000L325.900000,303.400000L359,215.200000Z" clip-rule="evenodd" fill="rgb(255,255,255)" fill-rule="evenodd" stroke="none" stroke-width="1"></path><path id="efayiy03v44d33" d="M584.500000,245.300000C582.500000,223.500000,565.700000,206.100000,544,203.200000L520.800000,200.100000L521.400000,195.600000L543.100000,198.500000C568,201.800000,587.300000,221.800000,589.600000,246.700000L598.300000,338.600000L593.300000,339.100000L584.500000,245.300000Z" clip-rule="evenodd" fill="rgb(255,255,255)" fill-rule="evenodd" stroke="none" stroke-width="1"></path><path id="efayiy03v44d34" d="M598.600000,338.700000L568.600000,334.700000L566.600000,349.700000L599.600000,354.100000L598.600000,338.700000Z" fill="rgb(51,51,51)" stroke="none" stroke-width="1"></path><path id="efayiy03v44d35" d="M518.300000,195.200000C513.600000,216.800000,494.300000,231.700000,473.500000,228.900000C452.700000,226.100000,437.900000,206.700000,439.100000,184.600000L442.200000,185L512.300000,194.300000L518.300000,195.200000Z" clip-rule="evenodd" fill="rgb(190,190,190)" fill-rule="evenodd" stroke="none" stroke-width="1"></path><path id="efayiy03v44d36" d="M479.100000,184L481.900000,163.100000L473.300000,162C464.200000,160.800000,457.800000,152.400000,459,143.300000L459,143.300000C460.200000,134.200000,468.600000,127.800000,477.700000,129L486.300000,130.100000" fill="none" stroke="rgb(255,255,255)" stroke-width="10" stroke-linecap="round" stroke-linejoin="round"></path><path id="efayiy03v44d37" d="M475,219.900000C491.400000,222.100000,507.500000,210.300000,511.400000,192.100000L526.200000,195.300000C520.800000,220.300000,498.200000,238.300000,473,234.900000C447.800000,231.500000,430.700000,208.200000,432,182.700000L447.100000,183.500000C446.200000,202.200000,458.600000,217.700000,475,219.900000Z" clip-rule="evenodd" fill="rgb(51,51,51)" fill-rule="evenodd" stroke="none" stroke-width="1"></path><path id="efayiy03v44d38" d="M356.600000,263.700000L349,320.700000L337,319.100000L356.600000,263.700000Z" fill="rgb(51,51,51)" fill-opacity="0.16" stroke="none" stroke-width="1"></path><path id="efayiy03v44d39" d="M574.100000,292.700000L566.500000,349.700000L578.500000,351.300000L574.100000,292.700000Z" fill="rgb(51,51,51)" fill-opacity="0.16" stroke="none" stroke-width="1"></path><circle id="efayiy03v44d40" r="15.100000" transform="matrix(1 0 0 1 529.29999999999995 285.19999999999999)" fill="rgb(228,228,228)" stroke="none" stroke-width="1"></circle><rect id="efayiy03v44d41" width="9.100000" height="13.600000" rx="0" ry="0" transform="matrix(0.13220000000000 -0.99120000000000 0.99120000000000 0.13220000000000 398.60475999999977 269.32989999999990)" fill="rgb(228,228,228)" stroke="none" stroke-width="1"></rect><rect id="efayiy03v44d42" width="9.100000" height="219.500000" rx="0" ry="0" transform="matrix(0.13220000000000 -0.99120000000000 0.99120000000000 0.13220000000000 350.69327999999979 308.13887999999992)" fill="rgb(255,189,62)" stroke="none" stroke-width="1"></rect><rect id="efayiy03v44d43" width="9.100000" height="219.500000" rx="0" ry="0" transform="matrix(0.13220000000000 -0.99120000000000 0.99120000000000 0.13220000000000 349.49023999999980 317.13911999999988)" fill="rgb(255,62,62)" stroke="none" stroke-width="1"></rect><rect id="efayiy03v44d44" width="9.100000" height="219.500000" rx="0" ry="0" transform="matrix(0.13220000000000 -0.99120000000000 0.99120000000000 0.13220000000000 348.28799999999978 326.14135999999979)" fill="rgb(51,51,51)" stroke="none" stroke-width="1"></rect><path id="efayiy03v44d45" d="M473.300000,179.400000L485.800000,181.100000L511.400000,194.700000L513.200000,209.600000L439.900000,199.800000L446.800000,186.100000L473.300000,179.400000Z" fill="rgb(255,255,255)" stroke="none" stroke-width="1"></path><path id="efayiy03v44d46" d="M475,219.900000C491.400000,222.100000,507.500000,210.300000,511.400000,192.100000L526.200000,195.300000C520.800000,220.300000,498.200000,238.300000,473,234.900000C447.800000,231.500000,430.700000,208.200000,432,182.700000L447.100000,183.500000C446.200000,202.200000,458.600000,217.700000,475,219.900000Z" clip-rule="evenodd" fill="rgb(51,51,51)" fill-rule="evenodd" stroke="none" stroke-width="1"></path><path id="efayiy03v44d47" d="M399.600000,179.900000L458.200000,182.500000C456.800000,193.200000,464.300000,203.100000,475,204.500000L476.300000,204.700000C487,206.100000,496.900000,198.600000,498.300000,187.900000L552.200000,200.300000C575.300000,205.600000,592,225.500000,593.400000,249.100000L599.200000,354.500000L561.800000,577.300000C561.800000,577.300000,476.200000,581.800000,421.800000,574.600000C367.400000,567.300000,286,540.500000,286,540.500000L315.800000,316.700000L346.400000,217.400000C353.700000,194.200000,375.500000,178.900000,399.600000,179.900000Z" fill="url(#efayiy03v44d47-fill)" stroke="rgb(255,255,255)" stroke-width="2"></path><path id="efayiy03v44d48" d="M594,385.900000L561.900000,577.100000C561.900000,577.100000,476.300000,581.600000,421.900000,574.400000C404.400000,572.100000,384,567.700000,364.500000,562.900000C378.600000,552.400000,397,546.300000,418.900000,553.600000C473.300000,571.700000,498.800000,543.200000,482.400000,503.400000C466,463.600000,499,412.500000,549.800000,419.200000C569.300000,421.800000,583.800000,406.600000,594,385.900000Z" clip-rule="evenodd" fill="rgb(5,111,125)" fill-opacity="0.18" fill-rule="evenodd" stroke="none" stroke-width="1"></path></g></g></g><g id="efayiy03v44d49_ts" transform="translate(666.900024,127.099991) scale(0,0)"><path id="efayiy03v44d49" d="M666.900000,148.900000C663.200000,138.800000,655.200000,130.800000,645.100000,127.100000C655.200000,123.400000,663.200000,115.400000,666.900000,105.300000C670.600000,115.400000,678.600000,123.400000,688.700000,127.100000C678.600000,130.800000,670.600000,138.800000,666.900000,148.900000Z" transform="translate(-666.900024,-127.099991)" fill="rgb(255,182,96)" stroke="none" stroke-width="1"></path></g><g id="efayiy03v44d50_ts" transform="translate(617.799988,189.199997) scale(0,0)"><path id="efayiy03v44d50" d="M617.800000,223C612,207.300000,599.700000,195,584,189.200000C599.700000,183.400000,612,171.100000,617.800000,155.400000C623.600000,171.100000,635.900000,183.400000,651.600000,189.200000C635.900000,195,623.600000,207.300000,617.800000,223Z" transform="translate(-617.799988,-189.199997)" fill="rgb(255,182,96)" stroke="none" stroke-width="1"></path></g><g id="efayiy03v44d51_ts" transform="translate(600.900024,106.900002) scale(0,0)"><path id="efayiy03v44d51" d="M600.900000,123.800000C598,116,591.800000,109.800000,584,106.900000C591.800000,104,598,97.800000,600.900000,90C603.800000,97.800000,610,104,617.800000,106.900000C610,109.800000,603.800000,116,600.900000,123.800000Z" transform="translate(-600.900024,-106.900002)" fill="rgb(255,182,96)" stroke="none" stroke-width="1"></path></g></g><clipPath id="efayiy03v44d52"><use id="efayiy03v44d53" width="800" height="600" xlink:href="#efayiy03v44d2" fill="rgb(0,0,0)" stroke="none" stroke-width="1"></use></clipPath></g></g></svg> 